<?xml version="1.0" standalone="no"?><!DOCTYPE svg PUBLIC "-//W3C//DTD SVG 1.1//EN" "http://www.w3.org/Graphics/SVG/1.1/DTD/svg11.dtd"><svg t="1566629323618" class="icon" viewBox="0 0 1024 1024" version="1.1" xmlns="http://www.w3.org/2000/svg" p-id="4555" width="500" height="500" xmlns:xlink="http://www.w3.org/1999/xlink"><defs><style type="text/css"></style></defs><path d="M512 512m-512 0a512 512 0 1 0 1024 0 512 512 0 1 0-1024 0Z" fill="#ffffff" p-id="4556"></path><path d="M144.108708 747.666146h615.968198v36.534389H144.108708z" fill="#E79E2D" p-id="4557"></path><path d="M760.050978 748.84586H144.108708l109.618291-106.67549h615.927145z" fill="#F2BE3E" p-id="4558"></path><path d="M760.050978 748.84586l-0.321937 35.233679 109.603167-106.684132 0.321936-35.225037z" fill="#E79E2D" p-id="4559"></path><path d="M365.400066 297.328866v-21.407696l-5.399458 0.015125-126.711174 63.916275 33.827097-0.006482 84.807576-42.517222z" fill="#F06668" p-id="4560"></path><path d="M447.508993 297.296456h-95.116025l-85.276437 42.70952h100.515484z" fill="#FFFFFF" p-id="4561"></path><path d="M490.996345 272.831444l-122.709654 67.014644 0.008643 383.413384 122.707493-79.408118z" fill="#F06668" p-id="4562"></path><path d="M232.044901 339.878497h136.250433v383.372332h-136.250433zM491.415511 272.831444l-3.774651 0.274402-130.317295 66.740242 10.906949-0.105872zM360.000608 275.936295l-127.955707 63.909793 10.913431 0.006482 122.338023-63.9314z" fill="#F6A2A3" p-id="4563"></path><path d="M363.096816 297.199227h2.329178v-21.278057l-2.450175 1.348244z" fill="#E58E8F" p-id="4564"></path><path d="M363.096816 297.199227h2.329178v-21.278057l-2.450175 1.348244z" fill="#E58E8F" p-id="4565"></path><path d="M363.096816 297.199227h2.329178v-21.278057l-2.450175 1.348244z" fill="#E58E8F" p-id="4566"></path><path d="M365.400066 275.92117l-124.600221 63.9314h7.050193l115.060962-59.177975z" fill="#D88080" p-id="4567"></path><path d="M289.453306 339.884979h-6.767148l75.356903-42.331406 7.737279 0.008643zM316.359849 339.884979h-6.758505l75.363385-42.331406 7.737279 0.008643zM344.260291 339.884979h-6.758506l75.348261-42.331406 7.737279 0.008643z" fill="#DDDDDC" p-id="4568"></path><path d="M242.943207 357.502899h114.509997v70.47384H242.943207z" fill="#F06668" p-id="4569"></path><path d="M252.402522 366.31402h95.658347v52.858081h-95.658347z" fill="#FFFFFF" p-id="4570"></path><path d="M297.765317 501.408506m-35.225037 0a35.225037 35.225037 0 1 0 70.450073 0 35.225037 35.225037 0 1 0-70.450073 0Z" fill="#F06668" p-id="4571"></path><path d="M297.765317 501.408506m-30.017876 0a30.017876 30.017876 0 1 0 60.035752 0 30.017876 30.017876 0 1 0-60.035752 0Z" fill="#F6A2A3" p-id="4572"></path><path d="M297.765317 622.759113m-35.225037 0a35.225037 35.225037 0 1 0 70.450073 0 35.225037 35.225037 0 1 0-70.450073 0Z" fill="#F06668" p-id="4573"></path><path d="M297.765317 622.759113m-30.017876 0a30.017876 30.017876 0 1 0 60.035752 0 30.017876 30.017876 0 1 0-60.035752 0Z" fill="#F6A2A3" p-id="4574"></path><path d="M537.651207 211.194652l0.008643-21.399053-5.399458 0.006482-126.719817 63.93356 33.83358-0.015124 84.809736-42.525865z" fill="#357180" p-id="4575"></path><path d="M619.766616 211.179528h-95.122507l-85.269954 42.703037 100.500359 0.006482z" fill="#FFFFFF" p-id="4576"></path><path d="M663.253969 186.705873l-122.724779 67.014644 0.008642 461.71309 122.716137-79.423243z" fill="#357180" p-id="4577"></path><path d="M404.311167 253.720517h136.24179V715.433607h-136.24179zM663.666653 186.705873l-3.774652 0.274403-130.317294 66.740241 10.915591-0.105872z" fill="#67B8CB" p-id="4578"></path><path d="M532.260392 189.802081l-127.955707 63.918436 10.904788 0.015124 122.338023-63.940042z" fill="#67B8CB" p-id="4579"></path><path d="M535.3566 211.073656h2.320535v-21.278057l-2.450174 1.341762z" fill="#E58E8F" p-id="4580"></path><path d="M535.3566 211.073656h2.320535v-21.278057l-2.450174 1.341762z" fill="#E58E8F" p-id="4581"></path><path d="M535.3566 211.073656h2.320535v-21.278057l-2.450174 1.341762z" fill="#67B7C3" p-id="4582"></path><path d="M537.65985 189.795599l-124.608864 63.940042h7.050193l115.05232-59.19526z" fill="#43A0AA" p-id="4583"></path><path d="M461.695804 253.759409h-6.758505l75.365546-42.337889 7.737279 0.015125zM488.610991 253.759409h-6.752024l75.365546-42.337889 7.737279 0.015125zM516.511432 253.759409h-6.752023l75.34826-42.337889 7.737279 0.015125z" fill="#DDDDDC" p-id="4584"></path><path d="M415.226758 271.38381h114.509997v70.465198h-114.509997z" fill="#357180" p-id="4585"></path><path d="M424.603969 280.205734h95.673472v52.840796h-95.673472z" fill="#FFFFFF" p-id="4586"></path><path d="M470.040225 444.006583m-35.233679 0a35.233679 35.233679 0 1 0 70.467358 0 35.233679 35.233679 0 1 0-70.467358 0Z" fill="#357180" p-id="4587"></path><path d="M470.040225 592.765004m-35.233679 0a35.233679 35.233679 0 1 0 70.467358 0 35.233679 35.233679 0 1 0-70.467358 0Z" fill="#357180" p-id="4588"></path><path d="M816.48277 642.323776l-67.531039 68.622166-117.55867 3.969109 68.678342-73.189774z" p-id="4589"></path><path d="M654.192213 327.459095l-3.161027-15.602035-3.945342 0.808082-82.973186 65.316374 24.683237-4.988935 55.565372-43.537047z" fill="#2F8442" p-id="4590"></path><path d="M714.065917 315.316256l-69.374071 14.050691-55.880827 43.729345 73.304289-14.835006z" fill="#FFFFFF" p-id="4591"></path><path d="M742.169459 291.045703l-79.593933 66.997358 68.194357 336.741237 77.766025-76.035347z" fill="#2F8442" p-id="4592"></path><path d="M662.599293 358.008491l68.198678 336.743397-99.378983 20.126432-68.200839-336.741237z" fill="#6CC077" p-id="4593"></path><path d="M742.467628 290.989526l-2.700809 0.751905-85.194332 67.926437 7.938219-1.696108zM647.085844 312.665142l-83.88714 65.50219 7.964146-1.609682 79.779749-64.694108z" fill="#6CC077" p-id="4594"></path><path d="M652.493944 327.709731l1.698269-0.347865-3.154545-15.513449-1.583755 1.33312z" fill="#E58E8F" p-id="4595"></path><path d="M652.493944 327.709731l1.698269-0.347865-3.154545-15.513449-1.583755 1.33312z" fill="#E58E8F" p-id="4596"></path><path d="M652.493944 327.709731l1.698269-0.347865-3.154545-15.513449-1.583755 1.33312z" fill="#6CC077" p-id="4597"></path><path d="M651.031186 311.85706l-81.436966 65.031169 5.148823-1.050075 75.171088-60.150266z" fill="#48B15A" p-id="4598"></path><path d="M605.078534 369.71704l-4.932758 1.00254 48.71828-42.007309 5.634969-1.138661zM624.699375 365.74793l-4.924116 0.993898 48.709638-42.007309 5.652253-1.132179zM645.048353 361.625415l-4.924116 0.993897 48.709638-41.992184 5.634969-1.155946z" fill="#DDDDDC" p-id="4599"></path><path d="M667.711385 423.899597l-83.515509 16.91571-10.41-51.395323 83.51767-16.913548z" fill="#2F8442" p-id="4600"></path><path d="M659.563583 418.852325l-69.775951 14.130635-7.80858-38.548113 69.778111-14.132795z" fill="#FFFFFF" p-id="4601"></path><path d="M639.251336 507.214166m-26.219458 0a26.219458 26.219458 0 1 0 52.438915 0 26.219458 26.219458 0 1 0-52.438915 0Z" fill="#2F8442" p-id="4602"></path><path d="M661.160301 615.724045m-26.219457 0a26.219458 26.219458 0 1 0 52.438915 0 26.219458 26.219458 0 1 0-52.438915 0Z" fill="#2F8442" p-id="4603"></path></svg>